<svg width="100" height="100" viewBox="0 0 100 100" fill="none" xmlns="http://www.w3.org/2000/svg">
<g clip-path="url(#clip0)">
<path d="M49.6875 0.271973L52.3562 5.28447C52.9562 6.20947 53.6062 7.02822 54.3719 7.79072C56.6062 10.0251 58.7281 12.3657 60.6344 14.872C65.1562 20.8095 68.2062 27.4032 70.3844 34.5345C71.6906 38.8907 72.4 43.3595 72.4531 47.8782C72.6719 61.3876 68.0406 72.9876 58.7031 82.6282C57.1781 84.1532 55.5469 85.5657 53.7969 86.822C52.8719 86.822 52.4344 86.1126 52.0531 85.4595C51.3437 84.2626 50.9094 82.897 50.6906 81.5376C50.3625 79.9032 50.1469 78.2689 50.2531 76.5814V75.8188C50.1781 75.6563 49.3625 0.656348 49.6875 0.271973Z" fill="#599636"/>
<path d="M49.6875 0.106289C49.5781 -0.112461 49.4688 0.0531637 49.3594 0.159414C49.4125 1.25316 49.0313 2.22816 48.4344 3.15941C47.7781 4.08441 46.9094 4.79379 46.0375 5.55629C41.1938 9.75004 37.3813 14.8157 34.3281 20.4813C30.2656 28.1063 28.1719 36.2782 27.5781 44.8813C27.3063 47.9844 28.5594 58.9344 29.5375 62.0938C32.2063 70.4813 37 77.5094 43.2094 83.6094C44.7344 85.0782 46.3656 86.4407 48.0531 87.75C48.5438 87.75 48.5969 87.3125 48.7094 86.9875C48.9245 86.2921 49.0885 85.5819 49.2 84.8625L50.2938 76.6938L49.6875 0.106289Z" fill="#6CAC48"/>
<path d="M52.3563 90.1405C52.4657 88.8905 53.0657 87.853 53.7188 86.8186C53.0625 86.5468 52.575 86.0062 52.1938 85.403C51.8657 84.8593 51.5938 84.2061 51.3813 83.6061C50.6188 81.3187 50.4563 78.9187 50.2375 76.5812V75.1655C49.9657 75.3843 49.9094 77.2343 49.9094 77.5093C49.7504 79.9798 49.4225 82.4366 48.9282 84.8624C48.7657 85.8436 48.6563 86.8218 48.0532 87.6937C48.0532 87.803 48.0532 87.9124 48.1063 88.0749C49.0875 90.9624 49.3563 93.903 49.5219 96.8999V97.9936C49.5219 99.2999 49.4688 99.0249 50.5532 99.4624C50.9907 99.6249 51.4782 99.6811 51.9157 100.006C52.2438 100.006 52.2969 99.7343 52.2969 99.5155L52.1344 97.7186V92.7061C52.0813 91.8311 52.2438 90.9624 52.3532 90.1437L52.3563 90.1405Z" fill="#C2BFBF"/>
</g>
<defs>
<clipPath id="clip0">
<rect width="100" height="100" fill="white"/>
</clipPath>
</defs>
</svg>
